<svg width="177" height="123" viewBox="0 0 177 123" fill="none" xmlns="http://www.w3.org/2000/svg">
<path d="M26 67.4347H29.8093L32.7463 80.3493L35.3925 70.9385C35.7221 69.7995 36.2067 68.9115 36.8464 68.2745C37.5056 67.6181 38.4167 67.3382 39.5799 67.4347L43.2729 80.3493L45.3956 70.9095C45.6864 69.6547 46.1905 68.7185 46.9077 68.1007C47.625 67.483 48.6525 67.261 49.9901 67.4347L45.3666 87.6464H41.6735L37.9514 74.587L34.2875 87.6464H30.6235L26 67.4347Z" fill="#111827"/>
<path d="M62.2871 81.8551C61.2403 82.1253 60.2806 82.2219 59.4083 82.1446C58.5553 82.0674 57.8477 81.8647 57.2855 81.5365C56.7427 81.1891 56.3744 80.7354 56.1805 80.1756C56.006 79.5965 56.0642 78.9498 56.355 78.2355C56.956 78.7374 57.6539 79.0173 58.4487 79.0752C59.2435 79.1139 60.0092 79.0946 60.7459 79.0173C61.3663 78.9594 61.8315 78.8243 62.1417 78.6119C62.4713 78.3996 62.6748 78.1583 62.7524 77.888C62.8299 77.5985 62.8008 77.2993 62.6651 76.9904C62.5294 76.6815 62.3065 76.4016 61.9963 76.1506C61.7055 75.8997 61.3372 75.697 60.8913 75.5426C60.4648 75.3881 59.9899 75.3206 59.4664 75.3399C58.9042 75.3785 58.3711 75.5136 57.8671 75.7453C57.3631 75.9769 56.9172 76.2954 56.5295 76.7008C56.1417 77.1062 55.8316 77.5792 55.5989 78.1197C55.3663 78.6602 55.2403 79.2586 55.2209 79.915C55.2015 80.4555 55.2597 80.9864 55.3954 81.5076C55.5505 82.0288 55.7734 82.5114 56.0642 82.9554C56.355 83.3801 56.7039 83.7469 57.111 84.0558C57.5182 84.3453 57.9834 84.5287 58.5068 84.6059C59.2435 84.7411 59.9996 84.6928 60.775 84.4612C61.5504 84.2295 62.2386 83.8048 62.8396 83.1871L65.8929 84.6638C65.0981 85.8414 64.1578 86.6908 63.0722 87.212C61.9866 87.7139 60.7459 87.9649 59.3501 87.9649C58.0513 87.9649 56.9075 87.7429 55.9188 87.2989C54.9495 86.8356 54.1353 86.2275 53.4762 85.4746C52.8364 84.7218 52.3518 83.8724 52.0222 82.9265C51.7121 81.9612 51.5667 80.9864 51.5861 80.0019C51.6054 78.998 51.7993 78.0232 52.1676 77.0773C52.536 76.112 53.0691 75.2626 53.767 74.5291C54.5424 73.699 55.4439 73.1102 56.4713 72.7627C57.5182 72.4153 58.5844 72.2415 59.67 72.2415C60.8719 72.2415 61.9091 72.4442 62.7814 72.8496C63.6538 73.255 64.3614 73.7762 64.9042 74.4133C65.447 75.031 65.8056 75.7259 65.9801 76.4981C66.1546 77.251 66.1352 77.9846 65.922 78.6988C65.7281 79.4131 65.3307 80.0598 64.7297 80.6389C64.1288 81.1987 63.3146 81.6041 62.2871 81.8551Z" fill="#111827"/>
<path d="M75.8179 67.3768C76.6903 67.3768 77.4657 67.4927 78.1442 67.7243C78.8421 67.956 79.4721 68.2166 80.0343 68.5061C81.1781 69.0853 82.1183 69.896 82.855 70.9385C83.5917 71.9616 84.1248 73.1006 84.4543 74.3553C84.7839 75.6101 84.9099 76.9132 84.8324 78.2645C84.7742 79.5965 84.5028 80.8609 84.0181 82.0578C83.5529 83.2353 82.8841 84.2874 82.0117 85.214C81.1393 86.1213 80.0731 86.768 78.813 87.1541C78.309 87.3085 77.6208 87.4244 76.7484 87.5016C75.8954 87.5595 74.9843 87.6078 74.015 87.6464C73.0457 87.6657 72.0764 87.6657 71.1071 87.6464C70.1572 87.6464 69.3236 87.6464 68.6063 87.6464V70.8227C68.6063 70.34 68.6645 69.8864 68.7808 69.4617C68.8971 69.037 69.0813 68.6702 69.3333 68.3614C69.6047 68.0525 69.9536 67.8112 70.3801 67.6374C70.826 67.4637 71.3688 67.3768 72.0085 67.3768H75.8179ZM72.4738 83.882C73.3268 83.882 74.1313 83.882 74.8874 83.882C75.6434 83.882 76.3316 83.8145 76.952 83.6793C77.5917 83.5249 78.1733 83.2643 78.6967 82.8975C79.2201 82.5307 79.6757 81.9805 80.0634 81.247C80.3736 80.6485 80.6062 79.9632 80.7613 79.1911C80.9164 78.4189 80.9649 77.6371 80.9067 76.8456C80.8679 76.0541 80.7128 75.3013 80.4414 74.587C80.1894 73.8534 79.8017 73.226 79.2783 72.7048C78.8324 72.2608 78.2993 71.9037 77.6789 71.6334C77.0586 71.3632 76.4092 71.228 75.7306 71.228H72.4738V83.882Z" fill="#111827"/>
<path d="M99.0274 85.9958C98.2907 86.7101 97.4862 87.2313 96.6139 87.5595C95.7609 87.8877 94.8982 88.0324 94.0258 87.9938C93.1535 87.9745 92.3005 87.7815 91.4669 87.4147C90.6527 87.0479 89.9257 86.5267 89.286 85.8511C88.6656 85.1561 88.1616 84.3357 87.7739 83.3898C87.4055 82.4245 87.2214 81.3339 87.2214 80.1177C87.2214 78.9594 87.4249 77.888 87.832 76.9035C88.2391 75.919 88.7819 75.0793 89.4605 74.3843C90.1583 73.6893 90.9435 73.1585 91.8158 72.7917C92.7076 72.4056 93.6284 72.2319 94.5783 72.2705C95.5089 72.3091 96.2552 72.5214 96.8174 72.9075C97.3796 73.2743 97.7867 73.7086 98.0387 74.2106C98.3101 74.7125 98.4458 75.224 98.4458 75.7453C98.4652 76.2472 98.3877 76.6526 98.2132 76.9614C97.8836 76.4788 97.4184 76.1603 96.8174 76.0059C96.2165 75.8321 95.6349 75.7453 95.0727 75.7453C94.1809 75.7453 93.4346 75.9673 92.8336 76.4113C92.2326 76.8359 91.7771 77.3765 91.4669 78.0328C91.1567 78.6892 90.9919 79.4034 90.9726 80.1756C90.9726 80.9285 91.1179 81.6331 91.4087 82.2894C91.7189 82.9458 92.1745 83.4959 92.7754 83.9399C93.3958 84.3646 94.1615 84.577 95.0727 84.577C95.8481 84.577 96.4879 84.4032 96.9919 84.0558C97.4959 83.7083 97.8933 83.2643 98.1841 82.7238C98.4943 82.1639 98.7075 81.5462 98.8239 80.8705C98.9596 80.1756 99.0274 79.4903 99.0274 78.8146V72.6469H102.808V87.6464H99.0274V85.9958Z" fill="#111827"/>
<path d="M109.473 74.3843C109.628 74.0368 109.861 73.7376 110.171 73.4866C110.5 73.2357 110.859 73.0233 111.247 72.8496C111.634 72.6759 112.032 72.5407 112.439 72.4442C112.846 72.3477 113.224 72.2898 113.573 72.2705C114.31 72.2319 115.037 72.338 115.754 72.589C116.471 72.8206 117.13 73.2357 117.731 73.8341C118.604 74.7414 119.04 76.0445 119.04 77.7433V87.6464H115.318C115.318 87.3182 115.318 86.8742 115.318 86.3144C115.337 85.7545 115.347 85.1465 115.347 84.4901C115.347 83.8145 115.347 83.1195 115.347 82.4052C115.347 81.691 115.337 81.0153 115.318 80.3783C115.298 79.7412 115.269 79.1718 115.231 78.6699C115.192 78.1679 115.143 77.8012 115.085 77.5695C114.93 76.9518 114.63 76.4885 114.184 76.1796C113.757 75.8707 113.292 75.7163 112.788 75.7163C112.129 75.7163 111.615 75.8997 111.247 76.2665C110.878 76.6139 110.694 77.0773 110.694 77.6564C110.462 77.5792 110.229 77.4247 109.996 77.1931C109.764 76.9421 109.589 76.6815 109.473 76.4113V87.6464H105.722V72.6469H109.473V74.3843Z" fill="#111827"/>
<path d="M133.655 78.2066C133.5 77.666 133.2 77.2124 132.754 76.8456C132.327 76.4788 131.823 76.2086 131.242 76.0348C130.66 75.8418 130.04 75.7549 129.381 75.7742C128.722 75.7742 128.092 75.8997 127.491 76.1506C126.909 76.4016 126.395 76.778 125.95 77.2799C125.504 77.7626 125.193 78.3803 125.019 79.1332C124.883 79.7509 124.864 80.3783 124.961 81.0153C125.058 81.6524 125.281 82.2315 125.63 82.7527C125.979 83.2546 126.444 83.6697 127.025 83.9978C127.626 84.326 128.344 84.4901 129.177 84.4901C130.748 84.4901 131.969 83.9206 132.841 82.7817L135.604 84.7797C134.13 86.8452 132.008 87.878 129.235 87.878C127.781 87.878 126.521 87.6078 125.455 87.0672C124.408 86.5074 123.555 85.7932 122.896 84.9245C122.237 84.0365 121.791 83.0519 121.559 81.9709C121.326 80.8705 121.297 79.7895 121.471 78.7278C121.665 77.6467 122.072 76.6333 122.693 75.6873C123.313 74.7221 124.156 73.9403 125.223 73.3419C126.017 72.8979 126.861 72.5986 127.752 72.4442C128.664 72.2705 129.575 72.2512 130.486 72.3863C131.688 72.56 132.618 72.9172 133.277 73.4577C133.956 73.9982 134.402 74.587 134.615 75.224C134.828 75.8418 134.838 76.4402 134.644 77.0193C134.47 77.5792 134.14 77.9749 133.655 78.2066Z" fill="#111827"/>
<path d="M148.189 81.8551C147.142 82.1253 146.183 82.2219 145.31 82.1446C144.457 82.0674 143.75 81.8647 143.188 81.5365C142.645 81.1891 142.276 80.7354 142.083 80.1756C141.908 79.5965 141.966 78.9498 142.257 78.2355C142.858 78.7374 143.556 79.0173 144.351 79.0752C145.146 79.1139 145.911 79.0946 146.648 79.0173C147.268 78.9594 147.734 78.8243 148.044 78.6119C148.373 78.3996 148.577 78.1583 148.654 77.888C148.732 77.5985 148.703 77.2993 148.567 76.9904C148.432 76.6815 148.209 76.4016 147.898 76.1506C147.608 75.8997 147.239 75.697 146.793 75.5426C146.367 75.3881 145.892 75.3206 145.369 75.3399C144.806 75.3785 144.273 75.5136 143.769 75.7453C143.265 75.9769 142.819 76.2954 142.432 76.7008C142.044 77.1062 141.734 77.5792 141.501 78.1197C141.268 78.6602 141.142 79.2586 141.123 79.915C141.104 80.4555 141.162 80.9864 141.298 81.5076C141.453 82.0288 141.676 82.5114 141.966 82.9554C142.257 83.3801 142.606 83.7469 143.013 84.0558C143.42 84.3453 143.886 84.5287 144.409 84.6059C145.146 84.7411 145.902 84.6928 146.677 84.4612C147.453 84.2295 148.141 83.8048 148.742 83.1871L151.795 84.6638C151 85.8414 150.06 86.6908 148.974 87.212C147.889 87.7139 146.648 87.9649 145.252 87.9649C143.953 87.9649 142.81 87.7429 141.821 87.2989C140.852 86.8356 140.037 86.2275 139.378 85.4746C138.739 84.7218 138.254 83.8724 137.924 82.9265C137.614 81.9612 137.469 80.9864 137.488 80.0019C137.508 78.998 137.701 78.0232 138.07 77.0773C138.438 76.112 138.971 75.2626 139.669 74.5291C140.445 73.699 141.346 73.1102 142.373 72.7627C143.42 72.4153 144.486 72.2415 145.572 72.2415C146.774 72.2415 147.811 72.4442 148.684 72.8496C149.556 73.255 150.264 73.7762 150.806 74.4133C151.349 75.031 151.708 75.7259 151.882 76.4981C152.057 77.251 152.037 77.9846 151.824 78.6988C151.63 79.4131 151.233 80.0598 150.632 80.6389C150.031 81.1987 149.217 81.6041 148.189 81.8551Z" fill="#111827"/>
<path d="M108.119 32.4331C106.677 26.0924 102.486 21.8966 97.9271 19.8894C103.596 24.8655 108.819 34.4954 102.321 43.2695C99.6262 46.9109 94.2363 48.3499 91.9783 47.3346C91.9783 47.3346 95.4693 46.596 97.6405 44.7045C101.863 40.7223 103.274 34.3072 99.894 28.4752C99.4215 27.6588 98.8602 26.8967 98.2203 26.2027C98.2113 26.1923 98.2039 26.1818 98.1949 26.1719C95.8197 23.3491 92.5577 21.6642 89.0528 21.1471C84.5025 20.2952 78.6349 21.4029 74.2406 25.4517C69.45 29.8665 67.8985 35.5803 68.4339 40.5187C69.9241 33.1384 75.684 23.818 86.559 25.0354C91.0725 25.5416 95.0171 29.4721 95.2643 31.9284C95.2643 31.9284 92.6335 27.8151 86.1083 27.8151C85.9887 27.817 85.7359 27.827 85.7289 27.827L85.6457 27.8319C81.4029 27.9974 77.2783 30.2083 74.7621 34.5506C74.2885 35.3664 73.9067 36.2318 73.6234 37.131L73.6095 37.1678C72.3436 40.6289 72.5101 44.2858 73.8124 47.5681C75.3474 51.9209 79.2447 56.4301 84.9606 58.1964C91.1936 60.1227 96.936 58.6037 100.96 55.6736C93.7996 58.0762 82.8183 57.7677 78.439 47.7762C76.6217 43.6286 78.0656 38.2596 80.0778 36.8181C80.0778 36.8181 77.8173 41.1445 81.0809 46.7743C83.3154 50.4918 87.3712 53.0618 92.5223 53.0618C92.7706 53.0618 94.7598 52.9073 95.4767 52.7474L95.5166 52.7419C99.1576 52.1031 102.253 50.1312 104.455 47.3664C107.471 43.8665 109.442 38.2487 108.119 32.4331V32.4331Z" fill="#F1023D"/>
<path d="M33.804 96.576V98.22H31.572V105H29.52V98.22H27.288V96.576H33.804ZM36.8858 99.42C37.1258 99.052 37.4258 98.764 37.7858 98.556C38.1458 98.34 38.5458 98.232 38.9858 98.232V100.404H38.4218C37.9098 100.404 37.5258 100.516 37.2698 100.74C37.0138 100.956 36.8858 101.34 36.8858 101.892V105H34.8338V98.304H36.8858V99.42ZM39.5587 101.64C39.5587 100.952 39.6867 100.348 39.9427 99.828C40.2067 99.308 40.5627 98.908 41.0107 98.628C41.4587 98.348 41.9587 98.208 42.5107 98.208C42.9827 98.208 43.3947 98.304 43.7467 98.496C44.1067 98.688 44.3827 98.94 44.5747 99.252V98.304H46.6267V105H44.5747V104.052C44.3747 104.364 44.0947 104.616 43.7347 104.808C43.3827 105 42.9707 105.096 42.4987 105.096C41.9547 105.096 41.4587 104.956 41.0107 104.676C40.5627 104.388 40.2067 103.984 39.9427 103.464C39.6867 102.936 39.5587 102.328 39.5587 101.64ZM44.5747 101.652C44.5747 101.14 44.4307 100.736 44.1427 100.44C43.8627 100.144 43.5187 99.996 43.1107 99.996C42.7027 99.996 42.3547 100.144 42.0667 100.44C41.7867 100.728 41.6467 101.128 41.6467 101.64C41.6467 102.152 41.7867 102.56 42.0667 102.864C42.3547 103.16 42.7027 103.308 43.1107 103.308C43.5187 103.308 43.8627 103.16 44.1427 102.864C44.4307 102.568 44.5747 102.164 44.5747 101.652ZM51.1232 103.08L52.5752 98.304H54.7592L52.3832 105H49.8512L47.4752 98.304H49.6712L51.1232 103.08ZM61.9349 101.544C61.9349 101.736 61.9229 101.936 61.8989 102.144H57.2549C57.2869 102.56 57.4189 102.88 57.6509 103.104C57.8909 103.32 58.1829 103.428 58.5269 103.428C59.0389 103.428 59.3949 103.212 59.5949 102.78H61.7789C61.6669 103.22 61.4629 103.616 61.1669 103.968C60.8789 104.32 60.5149 104.596 60.0749 104.796C59.6349 104.996 59.1429 105.096 58.5989 105.096C57.9429 105.096 57.3589 104.956 56.8469 104.676C56.3349 104.396 55.9349 103.996 55.6469 103.476C55.3589 102.956 55.2149 102.348 55.2149 101.652C55.2149 100.956 55.3549 100.348 55.6349 99.828C55.9229 99.308 56.3229 98.908 56.8349 98.628C57.3469 98.348 57.9349 98.208 58.5989 98.208C59.2469 98.208 59.8229 98.344 60.3269 98.616C60.8309 98.888 61.2229 99.276 61.5029 99.78C61.7909 100.284 61.9349 100.872 61.9349 101.544ZM59.8349 101.004C59.8349 100.652 59.7149 100.372 59.4749 100.164C59.2349 99.956 58.9349 99.852 58.5749 99.852C58.2309 99.852 57.9389 99.952 57.6989 100.152C57.4669 100.352 57.3229 100.636 57.2669 101.004H59.8349ZM65.0694 96.12V105H63.0174V96.12H65.0694ZM67.5165 105.096C67.1565 105.096 66.8605 104.992 66.6285 104.784C66.4045 104.568 66.2925 104.304 66.2925 103.992C66.2925 103.672 66.4045 103.404 66.6285 103.188C66.8605 102.972 67.1565 102.864 67.5165 102.864C67.8685 102.864 68.1565 102.972 68.3805 103.188C68.6125 103.404 68.7285 103.672 68.7285 103.992C68.7285 104.304 68.6125 104.568 68.3805 104.784C68.1565 104.992 67.8685 105.096 67.5165 105.096ZM82.0262 96.576V105H79.9742V99.948L78.0902 105H76.4342L74.5382 99.936V105H72.4862V96.576H74.9102L77.2742 102.408L79.6142 96.576H82.0262ZM89.8138 101.544C89.8138 101.736 89.8018 101.936 89.7778 102.144H85.1338C85.1658 102.56 85.2978 102.88 85.5298 103.104C85.7698 103.32 86.0618 103.428 86.4058 103.428C86.9178 103.428 87.2738 103.212 87.4738 102.78H89.6578C89.5458 103.22 89.3418 103.616 89.0458 103.968C88.7578 104.32 88.3938 104.596 87.9538 104.796C87.5138 104.996 87.0218 105.096 86.4778 105.096C85.8218 105.096 85.2378 104.956 84.7258 104.676C84.2138 104.396 83.8138 103.996 83.5258 103.476C83.2378 102.956 83.0938 102.348 83.0938 101.652C83.0938 100.956 83.2338 100.348 83.5138 99.828C83.8018 99.308 84.2018 98.908 84.7138 98.628C85.2258 98.348 85.8138 98.208 86.4778 98.208C87.1258 98.208 87.7018 98.344 88.2058 98.616C88.7098 98.888 89.1018 99.276 89.3818 99.78C89.6698 100.284 89.8138 100.872 89.8138 101.544ZM87.7138 101.004C87.7138 100.652 87.5938 100.372 87.3538 100.164C87.1138 99.956 86.8138 99.852 86.4538 99.852C86.1098 99.852 85.8178 99.952 85.5778 100.152C85.3458 100.352 85.2018 100.636 85.1458 101.004H87.7138ZM97.2083 101.544C97.2083 101.736 97.1963 101.936 97.1723 102.144H92.5283C92.5603 102.56 92.6923 102.88 92.9243 103.104C93.1643 103.32 93.4563 103.428 93.8003 103.428C94.3123 103.428 94.6683 103.212 94.8683 102.78H97.0523C96.9403 103.22 96.7363 103.616 96.4403 103.968C96.1523 104.32 95.7883 104.596 95.3483 104.796C94.9083 104.996 94.4163 105.096 93.8723 105.096C93.2163 105.096 92.6323 104.956 92.1203 104.676C91.6083 104.396 91.2083 103.996 90.9203 103.476C90.6323 102.956 90.4883 102.348 90.4883 101.652C90.4883 100.956 90.6283 100.348 90.9083 99.828C91.1963 99.308 91.5963 98.908 92.1083 98.628C92.6203 98.348 93.2083 98.208 93.8723 98.208C94.5203 98.208 95.0963 98.344 95.6003 98.616C96.1043 98.888 96.4963 99.276 96.7763 99.78C97.0643 100.284 97.2083 100.872 97.2083 101.544ZM95.1083 101.004C95.1083 100.652 94.9883 100.372 94.7483 100.164C94.5083 99.956 94.2083 99.852 93.8483 99.852C93.5043 99.852 93.2123 99.952 92.9723 100.152C92.7403 100.352 92.5963 100.636 92.5403 101.004H95.1083ZM102.023 103.26V105H100.979C100.235 105 99.6549 104.82 99.2389 104.46C98.8229 104.092 98.6149 103.496 98.6149 102.672V100.008H97.7989V98.304H98.6149V96.672H100.667V98.304H102.011V100.008H100.667V102.696C100.667 102.896 100.715 103.04 100.811 103.128C100.907 103.216 101.067 103.26 101.291 103.26H102.023ZM104.126 105.096C103.766 105.096 103.47 104.992 103.238 104.784C103.014 104.568 102.902 104.304 102.902 103.992C102.902 103.672 103.014 103.404 103.238 103.188C103.47 102.972 103.766 102.864 104.126 102.864C104.478 102.864 104.766 102.972 104.99 103.188C105.222 103.404 105.338 103.672 105.338 103.992C105.338 104.304 105.222 104.568 104.99 104.784C104.766 104.992 104.478 105.096 104.126 105.096Z" fill="#111827"/>
<path d="M112.252 96.576C113.14 96.576 113.916 96.752 114.58 97.104C115.244 97.456 115.756 97.952 116.116 98.592C116.484 99.224 116.668 99.956 116.668 100.788C116.668 101.612 116.484 102.344 116.116 102.984C115.756 103.624 115.24 104.12 114.568 104.472C113.904 104.824 113.132 105 112.252 105H109.096V96.576H112.252ZM112.12 103.224C112.896 103.224 113.5 103.012 113.932 102.588C114.364 102.164 114.58 101.564 114.58 100.788C114.58 100.012 114.364 99.408 113.932 98.976C113.5 98.544 112.896 98.328 112.12 98.328H111.148V103.224H112.12ZM117.406 101.64C117.406 100.952 117.534 100.348 117.79 99.828C118.054 99.308 118.41 98.908 118.858 98.628C119.306 98.348 119.806 98.208 120.358 98.208C120.83 98.208 121.242 98.304 121.594 98.496C121.954 98.688 122.23 98.94 122.422 99.252V98.304H124.474V105H122.422V104.052C122.222 104.364 121.942 104.616 121.582 104.808C121.23 105 120.818 105.096 120.346 105.096C119.802 105.096 119.306 104.956 118.858 104.676C118.41 104.388 118.054 103.984 117.79 103.464C117.534 102.936 117.406 102.328 117.406 101.64ZM122.422 101.652C122.422 101.14 122.278 100.736 121.99 100.44C121.71 100.144 121.366 99.996 120.958 99.996C120.55 99.996 120.202 100.144 119.914 100.44C119.634 100.728 119.494 101.128 119.494 101.64C119.494 102.152 119.634 102.56 119.914 102.864C120.202 103.16 120.55 103.308 120.958 103.308C121.366 103.308 121.71 103.16 121.99 102.864C122.278 102.568 122.422 102.164 122.422 101.652ZM130.039 98.232C130.823 98.232 131.447 98.488 131.911 99C132.383 99.504 132.619 100.2 132.619 101.088V105H130.579V101.364C130.579 100.916 130.463 100.568 130.231 100.32C129.999 100.072 129.687 99.948 129.295 99.948C128.903 99.948 128.591 100.072 128.359 100.32C128.127 100.568 128.011 100.916 128.011 101.364V105H125.959V98.304H128.011V99.192C128.219 98.896 128.499 98.664 128.851 98.496C129.203 98.32 129.599 98.232 130.039 98.232ZM133.637 101.652C133.637 100.956 133.777 100.348 134.057 99.828C134.345 99.308 134.741 98.908 135.245 98.628C135.757 98.348 136.341 98.208 136.997 98.208C137.837 98.208 138.537 98.428 139.097 98.868C139.665 99.308 140.037 99.928 140.213 100.728H138.029C137.845 100.216 137.489 99.96 136.961 99.96C136.585 99.96 136.285 100.108 136.061 100.404C135.837 100.692 135.725 101.108 135.725 101.652C135.725 102.196 135.837 102.616 136.061 102.912C136.285 103.2 136.585 103.344 136.961 103.344C137.489 103.344 137.845 103.088 138.029 102.576H140.213C140.037 103.36 139.665 103.976 139.097 104.424C138.529 104.872 137.829 105.096 136.997 105.096C136.341 105.096 135.757 104.956 135.245 104.676C134.741 104.396 134.345 103.996 134.057 103.476C133.777 102.956 133.637 102.348 133.637 101.652ZM147.622 101.544C147.622 101.736 147.61 101.936 147.586 102.144H142.942C142.974 102.56 143.106 102.88 143.338 103.104C143.578 103.32 143.87 103.428 144.214 103.428C144.726 103.428 145.082 103.212 145.282 102.78H147.466C147.354 103.22 147.15 103.616 146.854 103.968C146.566 104.32 146.202 104.596 145.762 104.796C145.322 104.996 144.83 105.096 144.286 105.096C143.63 105.096 143.046 104.956 142.534 104.676C142.022 104.396 141.622 103.996 141.334 103.476C141.046 102.956 140.902 102.348 140.902 101.652C140.902 100.956 141.042 100.348 141.322 99.828C141.61 99.308 142.01 98.908 142.522 98.628C143.034 98.348 143.622 98.208 144.286 98.208C144.934 98.208 145.51 98.344 146.014 98.616C146.518 98.888 146.91 99.276 147.19 99.78C147.478 100.284 147.622 100.872 147.622 101.544ZM145.522 101.004C145.522 100.652 145.402 100.372 145.162 100.164C144.922 99.956 144.622 99.852 144.262 99.852C143.918 99.852 143.626 99.952 143.386 100.152C143.154 100.352 143.01 100.636 142.954 101.004H145.522ZM149.665 105.096C149.305 105.096 149.009 104.992 148.777 104.784C148.553 104.568 148.441 104.304 148.441 103.992C148.441 103.672 148.553 103.404 148.777 103.188C149.009 102.972 149.305 102.864 149.665 102.864C150.017 102.864 150.305 102.972 150.529 103.188C150.761 103.404 150.877 103.672 150.877 103.992C150.877 104.304 150.761 104.568 150.529 104.784C150.305 104.992 150.017 105.096 149.665 105.096Z" fill="#F1023D"/>
</svg>
